<mxfile host="app.diagrams.net" agent="Mozilla/5.0 (Macintosh; Intel Mac OS X 10_15_7) AppleWebKit/537.36 (KHTML, like Gecko) Chrome/129.0.0.0 Safari/537.36" version="24.7.17">
  <diagram name="PÃ¡gina-1" id="zrWc4C1WR4OI3GiHvkg0">
    <mxGraphModel dx="725" dy="442" grid="1" gridSize="10" guides="1" tooltips="1" connect="1" arrows="1" fold="1" page="1" pageScale="1" pageWidth="827" pageHeight="1169" math="0" shadow="0">
      <root>
        <mxCell id="0" />
        <mxCell id="1" parent="0" />
        <mxCell id="JRdStfSisl5borwizdKv-4" style="edgeStyle=orthogonalEdgeStyle;rounded=0;orthogonalLoop=1;jettySize=auto;html=1;" edge="1" parent="1" source="JRdStfSisl5borwizdKv-1" target="JRdStfSisl5borwizdKv-2">
          <mxGeometry relative="1" as="geometry">
            <Array as="points">
              <mxPoint x="350" y="370" />
            </Array>
          </mxGeometry>
        </mxCell>
        <mxCell id="JRdStfSisl5borwizdKv-6" style="edgeStyle=orthogonalEdgeStyle;rounded=0;orthogonalLoop=1;jettySize=auto;html=1;exitX=1.013;exitY=0.591;exitDx=0;exitDy=0;exitPerimeter=0;" edge="1" parent="1">
          <mxGeometry relative="1" as="geometry">
            <mxPoint x="120.00000000000007" y="375.4599999999999" as="sourcePoint" />
            <mxPoint x="498.8556410256411" y="410" as="targetPoint" />
          </mxGeometry>
        </mxCell>
        <mxCell id="JRdStfSisl5borwizdKv-1" value="Sistema Rails" style="rounded=0;whiteSpace=wrap;html=1;" vertex="1" parent="1">
          <mxGeometry x="30" y="340" width="90" height="60" as="geometry" />
        </mxCell>
        <mxCell id="JRdStfSisl5borwizdKv-2" value="React API versao 16 react" style="rounded=0;whiteSpace=wrap;html=1;" vertex="1" parent="1">
          <mxGeometry x="290" y="220" width="120" height="60" as="geometry" />
        </mxCell>
        <mxCell id="JRdStfSisl5borwizdKv-7" style="edgeStyle=orthogonalEdgeStyle;rounded=0;orthogonalLoop=1;jettySize=auto;html=1;entryX=1;entryY=0.75;entryDx=0;entryDy=0;" edge="1" parent="1" source="JRdStfSisl5borwizdKv-3" target="JRdStfSisl5borwizdKv-1">
          <mxGeometry relative="1" as="geometry" />
        </mxCell>
        <mxCell id="JRdStfSisl5borwizdKv-3" value="React API verao 18 react" style="rounded=0;whiteSpace=wrap;html=1;" vertex="1" parent="1">
          <mxGeometry x="440" y="410" width="120" height="60" as="geometry" />
        </mxCell>
        <mxCell id="JRdStfSisl5borwizdKv-5" style="edgeStyle=orthogonalEdgeStyle;rounded=0;orthogonalLoop=1;jettySize=auto;html=1;entryX=1;entryY=0.333;entryDx=0;entryDy=0;entryPerimeter=0;" edge="1" parent="1" source="JRdStfSisl5borwizdKv-2" target="JRdStfSisl5borwizdKv-1">
          <mxGeometry relative="1" as="geometry" />
        </mxCell>
        <mxCell id="JRdStfSisl5borwizdKv-11" value="&lt;font style=&quot;font-size: 8px;&quot;&gt;REQUEST &amp;gt;&amp;gt; USERS&lt;/font&gt;" style="text;html=1;align=center;verticalAlign=middle;whiteSpace=wrap;rounded=0;" vertex="1" parent="1">
          <mxGeometry x="330" y="440" width="110" height="30" as="geometry" />
        </mxCell>
        <mxCell id="JRdStfSisl5borwizdKv-12" value="&lt;font style=&quot;font-size: 8px;&quot;&gt;REQUEST &amp;gt;&amp;gt; USERS&lt;/font&gt;" style="text;html=1;align=center;verticalAlign=middle;whiteSpace=wrap;rounded=0;" vertex="1" parent="1">
          <mxGeometry x="190" y="220" width="100" height="30" as="geometry" />
        </mxCell>
        <mxCell id="JRdStfSisl5borwizdKv-13" value="&lt;font style=&quot;font-size: 8px;&quot;&gt;RESPONSE&lt;/font&gt;" style="text;html=1;align=center;verticalAlign=middle;whiteSpace=wrap;rounded=0;" vertex="1" parent="1">
          <mxGeometry x="250" y="340" width="60" height="30" as="geometry" />
        </mxCell>
        <mxCell id="JRdStfSisl5borwizdKv-14" value="&lt;font style=&quot;font-size: 8px;&quot;&gt;RESPONSE&lt;/font&gt;" style="text;html=1;align=center;verticalAlign=middle;whiteSpace=wrap;rounded=0;" vertex="1" parent="1">
          <mxGeometry x="410" y="350" width="60" height="30" as="geometry" />
        </mxCell>
        <mxCell id="JRdStfSisl5borwizdKv-15" value="&lt;font style=&quot;font-size: 10px;&quot;&gt;V1 NAME = RENZO TOGNELLA&lt;/font&gt;" style="text;html=1;align=center;verticalAlign=middle;whiteSpace=wrap;rounded=0;" vertex="1" parent="1">
          <mxGeometry x="400" y="235" width="190" height="30" as="geometry" />
        </mxCell>
        <mxCell id="JRdStfSisl5borwizdKv-16" value="&lt;font style=&quot;font-size: 10px;&quot;&gt;V2 - FIRST NAME = RENZO&amp;nbsp;&lt;br&gt;LASTNAME = TOGNELLA&lt;/font&gt;" style="text;html=1;align=center;verticalAlign=middle;whiteSpace=wrap;rounded=0;" vertex="1" parent="1">
          <mxGeometry x="540" y="425" width="206" height="30" as="geometry" />
        </mxCell>
      </root>
    </mxGraphModel>
  </diagram>
</mxfile>
